<?xml version="1.0" standalone="no"?>
<!DOCTYPE svg PUBLIC "-//W3C//DTD SVG 20010904//EN"
 "http://www.w3.org/TR/2001/REC-SVG-20010904/DTD/svg10.dtd">
<svg version="1.0" xmlns="http://www.w3.org/2000/svg"
 width="210.000000pt" height="210.000000pt" viewBox="0 0 210.000000 210.000000"
 preserveAspectRatio="xMidYMid meet">
<metadata>
Created by potrace 1.11, written by Peter Selinger 2001-2013
</metadata>
<g transform="translate(0.000000,210.000000) scale(0.100000,-0.100000)"
fill="#000000" stroke="none">
<path d="M52 2084 c-54 -38 -52 4 -52 -1024 0 -1050 -4 -990 63 -1030 31 -19
57 -20 987 -20 940 0 956 0 988 20 65 40 62 -6 62 1035 0 820 -2 950 -15 975
-33 64 37 60 -1035 60 -868 0 -978 -2 -998 -16z m1936 -86 c17 -17 17 -1859 0
-1876 -17 -17 -1859 -17 -1876 0 -17 17 -17 1859 0 1876 17 17 1859 17 1876 0z"/>
<path d="M948 811 c-3 -323 -4 -350 -22 -369 -42 -47 -118 -39 -182 20 l-43
40 -63 -38 c-92 -55 -90 -52 -74 -83 22 -41 111 -120 164 -144 37 -17 66 -22
137 -22 79 0 97 4 148 28 38 19 66 42 83 67 51 77 54 105 54 492 l0 358 -100
0 -99 0 -3 -349z"/>
<path d="M1454 1140 c-127 -50 -189 -180 -150 -314 27 -91 75 -135 233 -212
114 -56 136 -71 150 -99 39 -82 -36 -150 -145 -130 -27 5 -51 21 -92 64 l-56
58 -72 -49 -73 -49 18 -31 c30 -51 95 -110 153 -137 49 -23 67 -26 165 -26 90
0 118 4 156 21 112 52 165 139 157 259 -6 84 -31 139 -87 186 -41 36 -69 51
-213 118 -67 32 -92 49 -104 72 -32 62 8 119 82 119 40 0 51 -5 85 -38 l38
-39 71 44 c38 25 70 48 70 52 0 22 -66 91 -112 116 -71 39 -196 46 -274 15z"/>
</g>
</svg>
